<svg width="29" height="24" viewBox="0 0 29 24" fill="none" xmlns="http://www.w3.org/2000/svg">
<path d="M23.0584 16.1411C22.8735 15.8757 23.0101 15.6143 23.1016 15.5168C23.2187 15.4183 23.5268 15.1769 23.7549 14.9348C24.1555 14.5095 24.2537 14.4281 24.7564 13.6138C25.3579 12.6397 25.6101 11.1257 25.231 9.86813C24.8809 8.70639 24.3558 7.73292 23.0338 6.54769C21.7315 5.38018 20.0969 4.52707 17.8996 3.99326C15.7024 3.45946 12.9843 3.4112 10.7717 3.90279C8.55901 4.39437 7.30207 5.00512 6.11831 5.8661C4.87022 6.77388 4.0813 7.85657 3.69609 9.16846C3.37034 10.2778 3.70225 11.0081 4.04124 11.4695C4.40017 11.9581 5.23078 12.3909 6.69458 12.0848C8.22311 11.7651 9.37874 11.0473 10.7439 10.5648C12.1091 10.0823 13.2216 9.91639 14.5683 9.92543C15.915 9.93448 16.9597 10.2964 17.2926 10.8603C17.6254 11.4243 17.5021 11.8948 17.1231 12.3713C16.744 12.8478 15.8935 12.9805 15.3018 12.9684C14.7101 12.9564 13.9273 12.9021 13.1846 13.0348C12.4419 13.1675 11.6222 13.4932 11.6161 13.9305C11.6099 14.3678 11.8626 14.4884 12.8734 14.6543C13.8842 14.8202 15.7301 14.6241 16.707 14.3256C17.6839 14.027 19.1323 13.3665 19.2618 11.9732C19.3912 10.5799 18.5807 9.91035 17.9644 9.52734C17.348 9.14433 16.2602 8.72211 14.6053 8.67084C12.9504 8.61957 12.1523 8.74021 11.0429 9.00258C9.93345 9.26496 8.63605 9.90432 8.34637 10.025C8.05669 10.1456 7.5667 10.3326 7.23696 10.3838C6.90722 10.4351 6.04743 10.6342 5.61907 9.82893C5.19071 9.02369 5.84403 8.09482 6.66993 7.50069C7.49582 6.90657 8.6453 6.24309 10.0321 5.8661C11.4188 5.48912 13.3603 5.06087 16.1801 5.39563C18.9998 5.73039 21.1015 7.00308 22.0599 7.93498C23.0183 8.86687 23.3296 9.53337 23.4744 9.97369C23.6193 10.414 23.8566 11.2283 23.5823 12.1421C23.308 13.0559 22.8273 13.5927 22.479 14.0692C22.1308 14.5457 21.8812 14.8413 21.9644 15.7732C22.0476 16.7051 23.0831 18.1708 23.6008 19.1208C24.1185 20.0708 24.1339 20.7885 23.4559 21.2861C22.778 21.7838 21.5915 21.3223 20.9783 20.8247C20.365 20.3271 19.271 19.2866 18.1154 18.4844C16.9597 17.6822 15.4559 17.6762 14.8734 17.6912C14.291 17.7063 12.6977 17.9536 11.0952 17.5193C9.49276 17.0851 8.75316 16.3371 8.38335 15.5289C8.01355 14.7206 8.14606 14.0059 8.23235 13.5595C8.31864 13.1132 8.72542 13.1433 8.82096 13.1524C8.91649 13.1614 9.35409 13.27 9.27704 13.7405C9.2 14.211 9.09522 14.7629 9.55131 15.4143C10.0074 16.0657 10.8364 16.4517 11.6253 16.5995C12.4142 16.7473 13.046 16.7563 13.992 16.7081C14.9381 16.6598 16.2232 16.5543 17.385 16.9886C18.5468 17.4228 19.0707 17.8149 19.6562 18.3336C20.2417 18.8524 20.3742 18.973 21.1724 19.6244C21.9706 20.2758 22.5992 20.6257 22.815 20.3422C23.0307 20.0587 22.6393 19.4676 22.5561 19.3168C22.4729 19.166 22.4174 19.163 21.8812 18.2793C21.345 17.3957 20.8457 16.4397 20.8796 15.363C20.9135 14.2864 21.5515 13.5625 21.6994 13.3665C21.8177 13.2097 21.9562 13.0217 22.0106 12.9473L22.2294 12.6156C22.3876 12.3823 22.6868 11.744 22.6177 11.0564C22.5314 10.1969 22.1801 9.43084 20.9875 8.39942C19.7949 7.368 17.8288 6.6653 16.2972 6.46324C14.7656 6.26118 12.8765 6.21293 10.9258 6.71657C8.97504 7.22022 8.05361 7.85053 7.64991 8.09482C7.24621 8.3391 6.49119 8.97544 6.72848 9.24385C6.96577 9.51226 7.39721 9.26798 8.15531 8.9483C8.91341 8.62862 9.6715 8.02847 12.0352 7.72387C14.3988 7.41927 18.0322 7.60926 19.4621 9.39464C20.892 11.18 20.4544 12.6668 19.798 13.5203C19.1416 14.3738 18.0661 15.1006 16.5129 15.4505C14.9597 15.8003 13.4805 15.8184 12.2817 15.5952C11.0829 15.3721 10.6176 14.7206 10.5559 14.1537C10.4943 13.5867 10.7501 12.8599 11.8626 12.3472C12.9751 11.8345 14.2139 11.9219 15.2032 11.934C16.1924 11.9461 16.3834 11.7018 16.3742 11.5118C16.365 11.3218 16.0968 11.0172 15.0552 10.978C14.0136 10.9388 13.4127 10.9689 12.6669 11.1257C11.9211 11.2826 11.6931 11.2916 10.5128 11.7862C9.33251 12.2808 8.74083 12.5553 8.04745 12.7965C7.35407 13.0378 6.22925 13.3364 5.07669 13.1705C3.92413 13.0046 3.40025 12.501 2.99346 11.8465C2.68973 11.3579 2.21688 10.5045 2.72227 8.72513C3.22767 6.94578 4.74695 5.37369 6.26314 4.4939C7.9211 3.53184 9.69307 2.80708 12.7933 2.55772C15.2679 2.35867 17.2093 2.69645 19.0923 3.23327C20.9752 3.77009 23.5207 5.2177 24.9136 7.00308C26.2978 8.77729 26.4252 10.3252 26.4569 10.7114L26.4575 10.7186C26.4883 11.0926 26.6609 12.0034 25.9891 13.5143C25.4517 14.723 24.6475 15.5802 24.3127 15.8576L24.0415 16.1019C23.9901 16.1471 23.8609 16.2539 23.7549 16.319C23.6224 16.4005 23.2895 16.4728 23.0584 16.1411Z" fill="#66559B"/>
</svg>
