<svg width="128" height="24" viewBox="0 0 128 24" fill="none" xmlns="http://www.w3.org/2000/svg">
<path d="M22.5584 16.1411C22.3735 15.8757 22.5101 15.6143 22.6016 15.5168C22.7187 15.4183 23.0268 15.1769 23.2549 14.9348C23.6555 14.5095 23.7537 14.4281 24.2564 13.6138C24.8579 12.6397 25.1101 11.1257 24.731 9.86813C24.3809 8.70639 23.8558 7.73292 22.5338 6.54769C21.2315 5.38018 19.5969 4.52707 17.3996 3.99326C15.2024 3.45946 12.4843 3.4112 10.2717 3.90279C8.05901 4.39437 6.80207 5.00512 5.61831 5.8661C4.37022 6.77388 3.5813 7.85657 3.19609 9.16846C2.87034 10.2778 3.20225 11.0081 3.54124 11.4695C3.90017 11.9581 4.73078 12.3909 6.19458 12.0848C7.72311 11.7651 8.87874 11.0473 10.2439 10.5648C11.6091 10.0823 12.7216 9.91639 14.0683 9.92543C15.415 9.93448 16.4597 10.2964 16.7926 10.8603C17.1254 11.4243 17.0021 11.8948 16.6231 12.3713C16.244 12.8478 15.3935 12.9805 14.8018 12.9684C14.2101 12.9564 13.4273 12.9021 12.6846 13.0348C11.9419 13.1675 11.1222 13.4932 11.1161 13.9305C11.1099 14.3678 11.3626 14.4884 12.3734 14.6543C13.3842 14.8202 15.2301 14.6241 16.207 14.3256C17.1839 14.027 18.6323 13.3665 18.7618 11.9732C18.8912 10.5799 18.0807 9.91035 17.4644 9.52734C16.848 9.14433 15.7602 8.72211 14.1053 8.67084C12.4504 8.61957 11.6523 8.74021 10.5429 9.00258C9.43345 9.26496 8.13605 9.90432 7.84637 10.025C7.55669 10.1456 7.0667 10.3326 6.73696 10.3838C6.40722 10.4351 5.54743 10.6342 5.11907 9.82893C4.69071 9.02369 5.34403 8.09482 6.16993 7.50069C6.99582 6.90657 8.1453 6.24309 9.53206 5.8661C10.9188 5.48912 12.8603 5.06087 15.6801 5.39563C18.4998 5.73039 20.6015 7.00308 21.5599 7.93498C22.5183 8.86687 22.8296 9.53337 22.9744 9.97369C23.1193 10.414 23.3566 11.2283 23.0823 12.1421C22.808 13.0559 22.3273 13.5927 21.979 14.0692C21.6308 14.5457 21.3812 14.8413 21.4644 15.7732C21.5476 16.7051 22.5831 18.1708 23.1008 19.1208C23.6185 20.0708 23.6339 20.7885 22.9559 21.2861C22.278 21.7838 21.0915 21.3223 20.4783 20.8247C19.865 20.3271 18.771 19.2866 17.6154 18.4844C16.4597 17.6822 14.9559 17.6762 14.3734 17.6912C13.791 17.7063 12.1977 17.9536 10.5952 17.5193C8.99276 17.0851 8.25316 16.3371 7.88335 15.5289C7.51355 14.7206 7.64606 14.0059 7.73235 13.5595C7.81864 13.1132 8.22542 13.1433 8.32096 13.1524C8.41649 13.1614 8.85409 13.27 8.77704 13.7405C8.7 14.211 8.59522 14.7629 9.05131 15.4143C9.50741 16.0657 10.3364 16.4517 11.1253 16.5995C11.9142 16.7473 12.546 16.7563 13.492 16.7081C14.4381 16.6598 15.7232 16.5543 16.885 16.9886C18.0468 17.4228 18.5707 17.8149 19.1562 18.3336C19.7417 18.8524 19.8742 18.973 20.6724 19.6244C21.4706 20.2758 22.0992 20.6257 22.315 20.3422C22.5307 20.0587 22.1393 19.4676 22.0561 19.3168C21.9729 19.166 21.9174 19.163 21.3812 18.2793C20.845 17.3957 20.3457 16.4397 20.3796 15.363C20.4135 14.2864 21.0515 13.5625 21.1994 13.3665C21.3177 13.2097 21.4562 13.0217 21.5106 12.9473L21.7294 12.6156C21.8876 12.3823 22.1868 11.744 22.1177 11.0564C22.0314 10.1969 21.6801 9.43084 20.4875 8.39942C19.2949 7.368 17.3288 6.6653 15.7972 6.46324C14.2656 6.26118 12.3765 6.21293 10.4258 6.71657C8.47504 7.22022 7.55361 7.85053 7.14991 8.09482C6.74621 8.3391 5.99119 8.97544 6.22848 9.24385C6.46577 9.51226 6.89721 9.26798 7.65531 8.9483C8.41341 8.62862 9.1715 8.02847 11.5352 7.72387C13.8988 7.41927 17.5322 7.60926 18.9621 9.39464C20.392 11.18 19.9544 12.6668 19.298 13.5203C18.6416 14.3738 17.5661 15.1006 16.0129 15.4505C14.4597 15.8003 12.9805 15.8184 11.7817 15.5952C10.5829 15.3721 10.1176 14.7206 10.0559 14.1537C9.99431 13.5867 10.2501 12.8599 11.3626 12.3472C12.4751 11.8345 13.7139 11.9219 14.7032 11.934C15.6924 11.9461 15.8834 11.7018 15.8742 11.5118C15.865 11.3218 15.5968 11.0172 14.5552 10.978C13.5136 10.9388 12.9127 10.9689 12.1669 11.1257C11.4211 11.2826 11.1931 11.2916 10.0128 11.7862C8.83251 12.2808 8.24083 12.5553 7.54745 12.7965C6.85407 13.0378 5.72925 13.3364 4.57669 13.1705C3.42413 13.0046 2.90025 12.501 2.49346 11.8465C2.18973 11.3579 1.71688 10.5045 2.22227 8.72513C2.72767 6.94578 4.24695 5.37369 5.76314 4.4939C7.4211 3.53184 9.19307 2.80708 12.2933 2.55772C14.7679 2.35867 16.7093 2.69645 18.5923 3.23327C20.4752 3.77009 23.0207 5.2177 24.4136 7.00308C25.7978 8.77729 25.9252 10.3252 25.9569 10.7114L25.9575 10.7186C25.9883 11.0926 26.1609 12.0034 25.4891 13.5143C24.9517 14.723 24.1475 15.5802 23.8127 15.8576L23.5415 16.1019C23.4901 16.1471 23.3609 16.2539 23.2549 16.319C23.1224 16.4005 22.7895 16.4728 22.5584 16.1411Z" fill="#66559B"/>
<path d="M47.968 12.144C47.968 15.696 45.632 18.192 42.272 18.192C38.928 18.192 36.624 15.712 36.624 12.144C36.624 8.592 38.944 6.096 42.288 6.096C45.632 6.096 47.968 8.576 47.968 12.144ZM45.808 12.144C45.808 9.648 44.432 8.064 42.288 8.064C40.144 8.064 38.768 9.648 38.768 12.144C38.768 14.64 40.144 16.224 42.288 16.224C44.432 16.224 45.808 14.608 45.808 12.144ZM54.5461 10.064V11.872H53.8261C52.4181 11.872 51.5381 12.624 51.5381 14.16V18H49.5861V10.112H51.4261L51.5381 11.264C51.8741 10.48 52.6261 9.952 53.6821 9.952C53.9541 9.952 54.2261 9.984 54.5461 10.064ZM56.8434 8.512C56.1714 8.512 55.6434 7.984 55.6434 7.328C55.6434 6.672 56.1714 6.16 56.8434 6.16C57.4834 6.16 58.0114 6.672 58.0114 7.328C58.0114 7.984 57.4834 8.512 56.8434 8.512ZM55.8674 18V10.096H57.8194V18H55.8674ZM59.3881 13.872C59.3881 11.568 60.8921 9.84 63.1481 9.84C64.3321 9.84 65.2601 10.336 65.7241 11.184L65.8361 10.096H67.6441V17.6C67.6441 20.24 66.0601 21.888 63.5001 21.888C61.2281 21.888 59.6761 20.592 59.4361 18.48H61.3881C61.5161 19.504 62.3001 20.112 63.5001 20.112C64.8441 20.112 65.7081 19.264 65.7081 17.952V16.64C65.2121 17.376 64.2361 17.84 63.1001 17.84C60.8601 17.84 59.3881 16.16 59.3881 13.872ZM61.3561 13.824C61.3561 15.152 62.2041 16.144 63.4841 16.144C64.8281 16.144 65.6601 15.2 65.6601 13.824C65.6601 12.48 64.8441 11.552 63.4841 11.552C62.1881 11.552 61.3561 12.528 61.3561 13.824ZM70.6403 8.512C69.9683 8.512 69.4403 7.984 69.4403 7.328C69.4403 6.672 69.9683 6.16 70.6403 6.16C71.2803 6.16 71.8083 6.672 71.8083 7.328C71.8083 7.984 71.2803 8.512 70.6403 8.512ZM69.6643 18V10.096H71.6163V18H69.6643ZM75.585 18H73.633V10.096H75.441L75.601 11.12C76.097 10.32 77.057 9.856 78.129 9.856C80.113 9.856 81.137 11.088 81.137 13.136V18H79.185V13.6C79.185 12.272 78.529 11.632 77.521 11.632C76.321 11.632 75.585 12.464 75.585 13.744V18ZM85.4069 18.208C83.7269 18.208 82.7029 17.232 82.7029 15.744C82.7029 14.288 83.7589 13.376 85.6309 13.232L87.9989 13.056V12.88C87.9989 11.808 87.3589 11.376 86.3669 11.376C85.2149 11.376 84.5749 11.856 84.5749 12.688H82.9109C82.9109 10.976 84.3189 9.856 86.4629 9.856C88.5909 9.856 89.9029 11.008 89.9029 13.2V18H88.1909L88.0469 16.832C87.7109 17.648 86.6389 18.208 85.4069 18.208ZM86.0469 16.736C87.2469 16.736 88.0149 16.016 88.0149 14.8V14.384L86.3669 14.512C85.1509 14.624 84.6869 15.024 84.6869 15.664C84.6869 16.384 85.1669 16.736 86.0469 16.736ZM93.7885 18H91.8525V6.096H93.7885V18ZM96.8121 8.512C96.1401 8.512 95.6121 7.984 95.6121 7.328C95.6121 6.672 96.1401 6.16 96.8121 6.16C97.4521 6.16 97.9801 6.672 97.9801 7.328C97.9801 7.984 97.4521 8.512 96.8121 8.512ZM95.8361 18V10.096H97.7881V18H95.8361ZM102.493 18H100.541V11.728H99.0209V10.096H100.541V7.632H102.493V10.096H104.029V11.728H102.493V18ZM104.554 21.664V20.032H105.722C106.49 20.032 106.97 19.856 107.306 18.928L107.53 18.336L104.346 10.096H106.41L108.442 15.856L110.586 10.096H112.602L108.73 19.76C108.138 21.232 107.306 21.84 106.01 21.84C105.466 21.84 104.986 21.776 104.554 21.664ZM113.57 18.192C112.866 18.192 112.274 17.616 112.274 16.928C112.274 16.224 112.866 15.648 113.57 15.648C114.274 15.648 114.866 16.224 114.866 16.928C114.866 17.616 114.274 18.192 113.57 18.192ZM119.11 18.208C117.43 18.208 116.406 17.232 116.406 15.744C116.406 14.288 117.462 13.376 119.334 13.232L121.702 13.056V12.88C121.702 11.808 121.062 11.376 120.07 11.376C118.918 11.376 118.278 11.856 118.278 12.688H116.614C116.614 10.976 118.022 9.856 120.166 9.856C122.294 9.856 123.606 11.008 123.606 13.2V18H121.894L121.75 16.832C121.414 17.648 120.342 18.208 119.11 18.208ZM119.75 16.736C120.95 16.736 121.718 16.016 121.718 14.8V14.384L120.07 14.512C118.854 14.624 118.39 15.024 118.39 15.664C118.39 16.384 118.87 16.736 119.75 16.736ZM126.5 8.512C125.828 8.512 125.3 7.984 125.3 7.328C125.3 6.672 125.828 6.16 126.5 6.16C127.14 6.16 127.668 6.672 127.668 7.328C127.668 7.984 127.14 8.512 126.5 8.512ZM125.524 18V10.096H127.476V18H125.524Z" fill="#66559B"/>
</svg>
